<?xml version="1.0" standalone="no"?>
<!DOCTYPE svg PUBLIC "-//W3C//DTD SVG 20010904//EN"
 "http://www.w3.org/TR/2001/REC-SVG-20010904/DTD/svg10.dtd">
<svg version="1.0" xmlns="http://www.w3.org/2000/svg"
 width="25pt" height="25pt" viewBox="0 0 244.000000 213.000000"
 preserveAspectRatio="xMidYMid meet">

<g transform="translate(0.000000,213.000000) scale(0.100000,-0.100000)"
fill="#7848f4" stroke="none">
<path d="M1080 1909 c-43 -17 -90 -71 -104 -120 -36 -120 47 -228 174 -229 61
0 108 27 148 84 25 38 32 58 32 98 0 27 -5 59 -11 71 -17 32 -60 77 -91 93
-31 16 -111 18 -148 3z m94 -99 c40 -15 58 -50 45 -89 -6 -17 -19 -36 -29 -41
-78 -42 -148 53 -85 115 27 28 33 29 69 15z"/>
<path d="M515 1711 c-63 -29 -106 -81 -112 -135 -14 -119 84 -218 199 -203 50
7 81 27 118 79 25 33 30 51 30 95 0 62 -17 100 -60 136 -29 25 -87 47 -120 47
-8 0 -33 -9 -55 -19z m103 -111 c43 -40 19 -120 -36 -120 -34 0 -72 37 -72 69
0 31 36 71 65 71 12 0 31 -9 43 -20z"/>
<path d="M1635 1701 c-101 -61 -122 -184 -48 -272 56 -66 161 -80 230 -30 43
31 83 100 83 144 0 60 -47 134 -102 163 -39 20 -127 18 -163 -5z m138 -113
c17 -22 18 -33 11 -60 -18 -61 -91 -72 -119 -17 -20 38 -19 51 6 83 28 35 73
33 102 -6z"/>
<path d="M393 1220 c-58 -4 -77 -10 -95 -28 -22 -22 -23 -29 -22 -180 1 -293
63 -455 248 -650 242 -255 566 -340 901 -237 113 34 195 86 303 190 96 92 155
171 212 285 58 114 70 170 82 368 12 201 8 222 -41 241 -27 11 -1449 21 -1588
11z m1503 -158 c7 -49 -2 -164 -22 -272 -16 -89 -91 -246 -159 -332 -69 -88
-200 -176 -320 -216 -33 -11 -106 -26 -162 -32 -205 -24 -384 33 -555 175
-171 142 -257 332 -273 600 l-7 120 746 0 746 0 6 -43z"/>
<path d="M766 871 c-44 -46 -32 -121 24 -151 49 -26 130 36 130 98 0 13 -13
37 -29 53 -40 39 -87 40 -125 0z"/>
<path d="M1416 874 c-39 -40 -37 -103 5 -138 47 -40 101 -30 133 26 54 90 -64
185 -138 112z"/>
<path d="M1032 788 c-20 -20 -14 -67 12 -93 24 -24 82 -45 124 -45 31 0 92 27
108 48 20 25 17 66 -7 87 -18 17 -24 17 -52 6 -54 -22 -73 -23 -105 -7 -37 19
-64 20 -80 4z"/>
</g>
</svg>
